# Blender v2.63 (sub 14) OBJ File: ''
# www.blender.org
v 0.281439 -0.006355 -0.276367
v 0.281439 -0.006355 0.276367
v -0.281439 -0.006355 0.276367
v -0.281439 -0.006355 -0.276367
v 0.281439 0.305502 -0.276367
v 0.281439 0.305502 0.276368
v -0.281439 0.305502 0.276367
v -0.281439 0.305502 -0.276367
v 0.204736 0.364632 -0.201046
v 0.204735 0.364632 0.201046
v -0.204736 0.364632 0.201046
v -0.204735 0.364632 -0.201046
v 0.281439 -0.007042 -0.051717
v 0.281439 -0.007042 0.051717
v 0.281439 0.164098 -0.051717
v 0.281439 0.164098 0.051717
v 0.394762 -0.007042 -0.051717
v 0.394762 -0.007042 0.051718
v 0.394762 0.164098 -0.051717
v 0.394762 0.164098 0.051718
v 0.394762 -0.006013 -0.035854
v 0.394762 -0.006013 0.035854
v 0.394762 0.139527 -0.035854
v 0.394762 0.139527 0.035854
v 0.332954 -0.006013 -0.035854
v 0.332954 -0.006013 0.035854
v 0.332954 0.139527 -0.035854
v 0.332954 0.139527 0.035854
vn -0.610536 0.791989 -0.000000
vn -0.000000 -0.000001 1.000000
vn -1.000000 -0.000000 -0.000000
vn 0.000000 0.000000 -1.000000
vn -0.000000 1.000000 0.000000
vn 0.610536 0.791989 0.000000
vn 0.000000 0.786577 -0.617492
vn -0.000000 0.786578 0.617491
vn -0.000001 -0.000000 1.000000
vn 1.000000 0.000001 -0.000000
vn 1.000000 -0.000001 0.000001
vn 1.000000 -0.000000 -0.000000
vn 0.000001 0.000000 -1.000000
vn -0.000002 -0.000000 1.000000
vn 1.000000 -0.000002 0.000003
vn 1.000000 -0.000001 -0.000001
vn 1.000000 -0.000001 0.000000
vn 0.000002 0.000000 -1.000000
vn 0.000000 -1.000000 0.000000
vn -0.000000 0.000000 1.000000
vn 0.610535 0.791989 0.000000
vn 1.000000 0.000005 0.000003
vn 1.000000 0.000001 -0.000002
vn 1.000000 0.000003 0.000004
vn 1.000000 0.000001 0.000004
s off
f 11//1 12//1 8//1
f 2//2 6//2 3//2
f 3//3 7//3 8//3
f 5//4 1//4 4//4
f 9//5 12//5 11//5
f 9//6 10//6 6//6
f 5//7 8//7 9//7
f 10//8 11//8 7//8
f 18//9 20//9 14//9
f 14//10 16//10 2//10
f 5//11 6//11 16//11
f 1//12 5//12 15//12
f 22//10 24//10 18//10
f 15//5 16//5 20//5
f 13//13 15//13 17//13
f 21//14 23//14 27//14
f 19//15 20//15 24//15
f 17//16 19//16 23//16
f 25//17 27//17 26//17
f 26//18 28//18 24//18
f 23//19 24//19 27//19
f 7//1 11//1 8//1
f 6//20 7//20 3//20
f 4//3 3//3 8//3
f 8//4 5//4 4//4
f 10//5 9//5 11//5
f 5//21 9//21 6//21
f 8//7 12//7 9//7
f 6//8 10//8 7//8
f 20//14 16//14 14//14
f 16//10 6//10 2//10
f 15//22 5//22 16//22
f 13//17 1//17 15//17
f 24//23 20//23 18//23
f 19//5 15//5 20//5
f 15//13 19//13 17//13
f 25//14 21//14 27//14
f 23//24 19//24 24//24
f 21//17 17//17 23//17
f 27//25 28//25 26//25
f 22//18 26//18 24//18
f 24//19 28//19 27//19
