# Blender v2.65 (sub 0) OBJ File: ''
# www.blender.org
mtllib req.mtl
o req
v 0.217073 -0.013659 0.009003
v 0.217073 -0.013659 0.098008
v 0.212986 -0.055162 0.098008
v 0.212986 -0.055162 0.009003
v 0.200880 -0.095069 0.098008
v 0.200880 -0.095069 0.009003
v 0.181221 -0.131848 0.098008
v 0.181221 -0.131848 0.009003
v 0.154765 -0.164085 0.098008
v 0.154765 -0.164085 0.009003
v 0.122528 -0.190541 0.098008
v 0.122528 -0.190541 0.009003
v 0.085749 -0.210200 0.098008
v 0.085749 -0.210200 0.009003
v 0.045841 -0.222306 0.098008
v 0.045841 -0.222306 0.009003
v 0.004339 -0.226394 0.098008
v 0.004339 -0.226394 0.009003
v -0.037164 -0.222306 0.098008
v -0.037164 -0.222306 0.009003
v -0.077071 -0.210200 0.098008
v -0.077071 -0.210200 0.009003
v -0.113850 -0.190541 0.098008
v -0.113850 -0.190541 0.009003
v -0.146087 -0.164085 0.098008
v -0.146087 -0.164085 0.009003
v -0.172543 -0.131848 0.098008
v -0.172543 -0.131848 0.009003
v -0.192202 -0.095069 0.098008
v -0.192202 -0.095069 0.009003
v -0.204308 -0.055162 0.098008
v -0.204308 -0.055162 0.009003
v -0.208396 -0.013659 0.098008
v -0.208396 -0.013659 0.009003
v -0.204308 0.027843 0.098008
v -0.204308 0.027843 0.009003
v -0.192202 0.067751 0.098008
v -0.192202 0.067751 0.009003
v -0.172543 0.104530 0.098008
v -0.172543 0.104530 0.009003
v -0.146087 0.136767 0.098008
v -0.146087 0.136767 0.009003
v -0.113850 0.163223 0.098008
v -0.113850 0.163223 0.009003
v -0.077071 0.182882 0.098008
v -0.077071 0.182882 0.009003
v -0.037163 0.194988 0.098008
v -0.037163 0.194988 0.009003
v 0.004339 0.199075 0.098008
v 0.004339 0.199075 0.009003
v 0.045841 0.194988 0.098008
v 0.045841 0.194988 0.009003
v 0.085749 0.182882 0.098008
v 0.085749 0.182882 0.009003
v 0.122528 0.163223 0.098008
v 0.122528 0.163223 0.009003
v 0.154765 0.136767 0.098008
v 0.154765 0.136767 0.009003
v 0.181221 0.104529 0.098008
v 0.181221 0.104529 0.009003
v 0.200880 0.067750 0.098008
v -0.080045 0.112630 0.098008
v 0.212986 0.027843 0.009003
v 0.212986 0.027843 0.098008
v 0.200880 0.067750 0.009003
v 0.153307 -0.043291 0.098008
v 0.156226 -0.013659 0.098008
v 0.156226 -0.013659 0.055487
v -0.053786 -0.153985 0.098008
v 0.111739 0.093741 0.098008
v -0.144630 0.015973 0.098008
v 0.111739 -0.121060 0.098008
v -0.025293 0.135310 0.098008
v -0.103062 -0.121060 0.098008
v 0.144664 0.044465 0.098008
v -0.135987 0.044466 0.098008
v 0.033971 -0.162628 0.098008
v 0.033971 0.135309 0.098008
v -0.121951 -0.098043 0.098008
v 0.144664 -0.071784 0.098008
v -0.103062 0.093741 0.098008
v -0.025293 -0.162628 0.098008
v 0.088723 0.112630 0.098008
v -0.147548 -0.013659 0.098008
v -0.053786 0.126666 0.098008
v -0.080045 -0.139949 0.098008
v 0.130629 0.070725 0.098008
v 0.062464 -0.153985 0.098008
v 0.153308 0.015972 0.098008
v -0.121951 0.070725 0.098008
v 0.004339 -0.165546 0.098008
v 0.062464 0.126666 0.098008
v -0.144630 -0.043291 0.098008
v 0.153307 -0.043291 0.055487
v 0.144664 -0.071784 0.055487
v 0.153308 0.015972 0.055487
v 0.062464 0.126666 0.055487
v -0.080045 0.112630 0.055487
v -0.147548 -0.013659 0.055487
v -0.080045 -0.139949 0.055487
v 0.062464 -0.153985 0.055487
v 0.088723 0.112630 0.055487
v -0.053786 0.126666 0.055487
v -0.144630 0.015973 0.055487
v -0.103062 -0.121060 0.055487
v 0.033971 -0.162628 0.055487
v 0.130628 -0.098043 0.098008
v 0.111739 0.093741 0.055487
v 0.004339 0.138228 0.098008
v -0.025293 0.135310 0.055487
v -0.135987 0.044466 0.055487
v -0.135987 -0.071784 0.098008
v -0.121951 -0.098043 0.055487
v 0.004339 -0.165546 0.055487
v 0.130628 -0.098043 0.055487
v 0.130629 0.070725 0.055487
v 0.004339 0.138228 0.055487
v -0.121951 0.070725 0.055487
v -0.135987 -0.071784 0.055487
v -0.025293 -0.162628 0.055487
v 0.088723 -0.139949 0.098008
v 0.111739 -0.121060 0.055487
v 0.144664 0.044465 0.055487
v 0.033971 0.135309 0.055487
v -0.103062 0.093741 0.055487
v -0.144630 -0.043291 0.055487
v -0.053786 -0.153985 0.055487
v 0.088723 -0.139949 0.055487
v 0.042499 -0.016915 0.061643
v 0.042499 -0.016915 0.155760
v 0.122766 -0.104768 0.160102
v 0.122766 -0.104768 0.057300
v 0.014408 -0.055577 0.061643
v 0.014408 -0.055577 0.155760
v -0.044341 -0.159064 0.160102
v -0.044341 -0.159064 0.057300
v -0.031042 -0.040810 0.061643
v -0.031042 -0.040810 0.155760
v -0.147618 -0.016915 0.160102
v -0.147618 -0.016915 0.057300
v -0.031042 0.006980 0.061643
v -0.031042 0.006980 0.155760
v -0.044341 0.125235 0.160102
v -0.044341 0.125235 0.057300
v 0.014408 0.021748 0.061643
v 0.122766 0.070938 0.057300
v 0.122766 0.070938 0.160102
v 0.014408 0.021748 0.155760
v 0.001846 -0.016915 0.179536
vn 0.995186 -0.098000 0.000000
vn 0.956938 -0.290292 0.000000
vn 0.881919 -0.471401 0.000000
vn 0.773013 -0.634390 0.000000
vn 0.634390 -0.773013 0.000000
vn 0.471401 -0.881919 0.000000
vn 0.290286 -0.956940 0.000000
vn 0.098027 -0.995184 0.000000
vn -0.098025 -0.995184 -0.000000
vn -0.290292 -0.956938 -0.000000
vn -0.471401 -0.881919 -0.000000
vn -0.634390 -0.773013 -0.000000
vn -0.773013 -0.634390 -0.000000
vn -0.881919 -0.471401 -0.000000
vn -0.956938 -0.290292 -0.000000
vn -0.995184 -0.098025 -0.000000
vn -0.995184 0.098027 -0.000000
vn -0.956940 0.290286 -0.000000
vn -0.881919 0.471401 -0.000000
vn -0.773013 0.634390 -0.000000
vn -0.634390 0.773013 -0.000000
vn -0.471401 0.881919 -0.000000
vn -0.290286 0.956940 -0.000000
vn -0.098003 0.995186 -0.000000
vn 0.098003 0.995186 0.000000
vn 0.290286 0.956940 0.000000
vn 0.471401 0.881919 0.000000
vn 0.634390 0.773013 0.000000
vn 0.773023 0.634378 0.000000
vn 0.881919 0.471401 0.000000
vn 0.000000 -0.000000 1.000000
vn 0.995186 0.098003 0.000000
vn 0.956938 0.290292 0.000000
vn 0.000000 0.000000 -1.000000
vn -0.995183 0.098033 0.000000
vn -0.000001 0.000000 1.000000
vn -0.995186 -0.098004 0.000000
vn -0.471404 -0.881918 -0.000000
vn 0.471404 -0.881918 0.000000
vn 0.995186 -0.098001 0.000000
vn 0.634382 0.773020 0.000000
vn -0.290277 0.956943 -0.000000
vn -0.956943 0.290277 0.000000
vn -0.634398 -0.773006 -0.000000
vn 0.290308 -0.956933 0.000000
vn 0.956943 -0.290277 0.000000
vn 0.773020 0.634382 0.000000
vn -0.098001 0.995186 -0.000000
vn -0.881918 0.471404 0.000000
vn -0.772990 -0.634419 -0.000000
vn 0.098001 -0.995186 0.000000
vn 0.881917 -0.471404 0.000000
vn 0.881917 0.471404 0.000000
vn 0.098001 0.995186 0.000000
vn -0.773020 0.634382 0.000000
vn -0.881939 -0.471364 0.000000
vn -0.098034 -0.995183 -0.000000
vn 0.773006 -0.634399 0.000000
vn 0.956943 0.290277 -0.000000
vn 0.290277 0.956943 0.000000
vn -0.634398 0.773006 -0.000000
vn -0.956933 -0.290308 0.000000
vn -0.290277 -0.956943 -0.000000
vn 0.634382 -0.773020 0.000000
vn 0.995186 0.098001 -0.000000
vn 0.471404 0.881917 0.000000
vn -0.471404 0.881917 -0.000000
vn 0.738262 0.674514 0.000000
vn -0.413367 -0.910565 -0.000000
vn 0.869638 -0.493689 0.000000
vn -0.993736 0.111757 -0.000000
vn -0.200799 -0.979633 -0.000000
vn -0.200799 0.979632 -0.000000
vn -0.993736 -0.111756 -0.000000
vn 0.869638 0.493689 0.000000
vn 0.738262 -0.674514 0.000000
vn -0.413360 0.910568 -0.000000
vn 0.011504 0.035407 -0.999307
vn -0.000000 0.000001 1.000000
vn -0.471404 -0.881917 -0.000000
vn -0.772990 -0.634418 -0.000000
vn 0.869639 -0.493689 0.000000
vn -0.200799 -0.979632 -0.000000
vn -0.200799 0.979633 -0.000000
vn 0.869639 0.493689 0.000000
vn 0.011505 -0.035406 -0.999307
vn -0.030118 0.021883 -0.999307
vn 0.037229 0.000000 -0.999307
vn -0.030118 -0.021883 -0.999307
vn 0.567317 -0.289720 0.770853
vn -0.100231 -0.629068 0.770861
vn 0.450842 -0.450011 0.770864
vn 0.567312 0.289717 0.770857
vn -0.100231 0.629068 0.770861
vn -0.629261 0.099071 0.770854
vn -0.288673 -0.567848 0.770854
vn 0.450842 0.450011 0.770864
vn -0.288664 0.567837 0.770866
vn -0.629260 -0.099070 0.770854
g req_req_None
usemtl None
s off
f 1//1 2//1 3//1
f 4//2 3//2 5//2
f 6//3 5//3 7//3
f 8//4 7//4 9//4
f 10//5 9//5 11//5
f 12//6 11//6 13//6
f 14//7 13//7 15//7
f 16//8 15//8 17//8
f 18//9 17//9 19//9
f 20//10 19//10 21//10
f 22//11 21//11 23//11
f 24//12 23//12 25//12
f 26//13 25//13 27//13
f 28//14 27//14 29//14
f 30//15 29//15 31//15
f 32//16 31//16 33//16
f 34//17 33//17 35//17
f 36//18 35//18 37//18
f 38//19 37//19 39//19
f 40//20 39//20 41//20
f 42//21 41//21 43//21
f 44//22 43//22 45//22
f 46//23 45//23 47//23
f 48//24 47//24 49//24
f 50//25 49//25 51//25
f 52//26 51//26 53//26
f 54//27 53//27 55//27
f 56//28 55//28 57//28
f 58//29 57//29 59//29
f 60//30 59//30 61//30
f 45//31 43//31 62//31
f 63//32 64//32 2//32
f 65//33 61//33 64//33
f 1//34 4//34 63//34
f 66//35 67//35 68//35
f 21//31 19//31 69//31
f 59//31 57//31 70//31
f 35//31 33//31 71//31
f 11//31 9//31 72//31
f 49//31 47//31 73//31
f 25//31 23//31 74//31
f 64//31 61//31 75//31
f 39//31 37//31 76//31
f 15//31 13//31 77//31
f 53//31 51//31 78//31
f 29//31 27//31 79//31
f 5//31 3//31 80//31
f 43//31 41//31 81//31
f 19//31 17//31 82//31
f 57//31 55//31 83//31
f 33//31 31//31 84//31
f 9//31 7//31 72//31
f 47//31 45//31 85//31
f 3//31 2//31 67//31
f 23//31 21//31 86//31
f 61//31 59//31 87//31
f 37//31 35//31 76//31
f 13//31 11//31 88//31
f 51//31 49//31 78//31
f 27//31 25//31 79//31
f 2//31 64//31 89//31
f 41//31 39//31 90//31
f 17//31 15//31 91//31
f 55//31 53//31 92//31
f 31//31 29//31 93//31
f 7//31 5//31 80//31
f 94//36 68//36 95//36
f 67//37 89//37 96//37
f 83//38 92//38 97//38
f 85//39 62//39 98//39
f 71//40 84//40 99//40
f 74//41 86//41 100//41
f 77//42 88//42 101//42
f 80//43 66//43 94//43
f 70//44 83//44 102//44
f 73//45 85//45 103//45
f 76//46 71//46 104//46
f 79//47 74//47 105//47
f 91//48 77//48 106//48
f 107//49 80//49 95//49
f 87//50 70//50 108//50
f 109//51 73//51 110//51
f 90//52 76//52 111//52
f 112//53 79//53 113//53
f 82//54 91//54 114//54
f 72//55 107//55 115//55
f 75//56 87//56 116//56
f 78//57 109//57 117//57
f 81//58 90//58 118//58
f 93//59 112//59 119//59
f 69//60 82//60 120//60
f 121//61 72//61 122//61
f 89//62 75//62 123//62
f 92//63 78//63 124//63
f 62//64 81//64 125//64
f 84//65 93//65 126//65
f 86//66 69//66 127//66
f 88//67 121//67 128//67
f 129//68 130//68 131//68
f 132//69 131//69 133//69
f 133//70 134//70 135//70
f 136//71 135//71 137//71
f 137//72 138//72 139//72
f 140//73 139//73 141//73
f 141//74 142//74 143//74
f 144//75 143//75 145//75
f 146//76 147//76 129//76
f 145//77 148//77 147//77
f 137//78 133//78 136//78
f 4//1 1//1 3//1
f 6//2 4//2 5//2
f 8//3 6//3 7//3
f 10//4 8//4 9//4
f 12//5 10//5 11//5
f 14//6 12//6 13//6
f 16//7 14//7 15//7
f 18//8 16//8 17//8
f 20//9 18//9 19//9
f 22//10 20//10 21//10
f 24//11 22//11 23//11
f 26//12 24//12 25//12
f 28//13 26//13 27//13
f 30//14 28//14 29//14
f 32//15 30//15 31//15
f 34//16 32//16 33//16
f 36//17 34//17 35//17
f 38//18 36//18 37//18
f 40//19 38//19 39//19
f 42//20 40//20 41//20
f 44//21 42//21 43//21
f 46//22 44//22 45//22
f 48//23 46//23 47//23
f 50//24 48//24 49//24
f 52//25 50//25 51//25
f 54//26 52//26 53//26
f 56//27 54//27 55//27
f 58//28 56//28 57//28
f 60//29 58//29 59//29
f 65//30 60//30 61//30
f 85//31 45//31 62//31
f 1//32 63//32 2//32
f 63//33 65//33 64//33
f 4//34 6//34 63//34
f 6//34 8//34 63//34
f 8//34 10//34 63//34
f 10//34 12//34 63//34
f 12//34 14//34 63//34
f 14//34 16//34 63//34
f 16//34 18//34 63//34
f 18//34 20//34 63//34
f 20//34 22//34 63//34
f 22//34 24//34 63//34
f 24//34 26//34 63//34
f 65//34 58//34 60//34
f 63//34 58//34 65//34
f 63//34 26//34 58//34
f 54//34 50//34 52//34
f 34//34 30//34 32//34
f 40//34 36//34 38//34
f 40//34 34//34 36//34
f 40//34 30//34 34//34
f 54//34 48//34 50//34
f 26//34 28//34 30//34
f 58//34 26//34 30//34
f 58//34 30//34 40//34
f 56//34 58//34 54//34
f 58//34 40//34 54//34
f 40//34 42//34 54//34
f 42//34 44//34 54//34
f 44//34 46//34 54//34
f 46//34 48//34 54//34
f 94//35 66//35 68//35
f 19//31 82//31 69//31
f 87//31 59//31 70//31
f 33//31 84//31 71//31
f 121//31 11//31 72//31
f 109//31 49//31 73//31
f 23//31 86//31 74//31
f 89//31 64//31 75//31
f 90//31 39//31 76//31
f 13//31 88//31 77//31
f 92//31 53//31 78//31
f 112//31 29//31 79//31
f 3//31 66//31 80//31
f 62//31 43//31 81//31
f 17//31 91//31 82//31
f 70//31 57//31 83//31
f 31//31 93//31 84//31
f 7//31 107//31 72//31
f 73//31 47//31 85//31
f 66//31 3//31 67//31
f 21//31 69//31 86//31
f 75//31 61//31 87//31
f 35//31 71//31 76//31
f 11//31 121//31 88//31
f 49//31 109//31 78//31
f 25//31 74//31 79//31
f 67//31 2//31 89//31
f 81//31 41//31 90//31
f 15//31 77//31 91//31
f 83//31 55//31 92//31
f 29//31 112//31 93//31
f 107//31 7//31 80//31
f 68//31 96//31 95//31
f 96//31 123//31 95//31
f 123//31 116//31 95//31
f 116//31 108//31 95//31
f 108//31 102//31 95//31
f 102//31 97//31 95//31
f 97//31 124//31 95//31
f 124//31 117//31 95//31
f 117//31 110//31 95//31
f 110//31 103//31 95//31
f 103//31 98//31 95//31
f 115//31 128//31 122//31
f 125//31 118//31 111//31
f 98//31 125//31 111//31
f 95//31 98//31 111//31
f 115//31 95//31 111//31
f 128//31 115//31 111//31
f 100//31 113//31 105//31
f 100//31 119//31 113//31
f 101//79 128//79 106//79
f 128//31 111//31 106//31
f 111//31 104//31 106//31
f 104//31 99//31 106//31
f 99//31 126//31 106//31
f 126//31 119//31 106//31
f 119//31 100//31 106//31
f 100//31 127//31 106//31
f 127//31 120//31 114//31
f 106//31 127//31 114//31
f 68//37 67//37 96//37
f 102//80 83//80 97//80
f 103//39 85//39 98//39
f 104//40 71//40 99//40
f 105//41 74//41 100//41
f 106//42 77//42 101//42
f 95//43 80//43 94//43
f 108//44 70//44 102//44
f 110//45 73//45 103//45
f 111//46 76//46 104//46
f 113//47 79//47 105//47
f 114//48 91//48 106//48
f 115//49 107//49 95//49
f 116//81 87//81 108//81
f 117//51 109//51 110//51
f 118//52 90//52 111//52
f 119//53 112//53 113//53
f 120//54 82//54 114//54
f 122//55 72//55 115//55
f 123//56 75//56 116//56
f 124//57 78//57 117//57
f 125//58 81//58 118//58
f 126//59 93//59 119//59
f 127//60 69//60 120//60
f 128//61 121//61 122//61
f 96//62 89//62 123//62
f 97//63 92//63 124//63
f 98//64 62//64 125//64
f 99//65 84//65 126//65
f 100//66 86//66 127//66
f 101//67 88//67 128//67
f 132//68 129//68 131//68
f 131//69 134//69 133//69
f 136//82 133//82 135//82
f 135//71 138//71 137//71
f 140//83 137//83 139//83
f 139//84 142//84 141//84
f 144//74 141//74 143//74
f 143//85 148//85 145//85
f 147//76 130//76 129//76
f 146//77 145//77 147//77
f 145//86 141//86 144//86
f 129//87 132//87 133//87
f 141//88 137//88 140//88
f 129//34 133//34 137//34
f 129//34 137//34 141//34
f 146//89 129//89 145//89
f 129//34 141//34 145//34
f 135//90 134//90 149//90
f 139//91 138//91 149//91
f 130//92 147//92 149//92
f 148//93 143//93 149//93
f 142//94 139//94 149//94
f 138//95 135//95 149//95
f 134//96 131//96 149//96
f 131//97 130//97 149//97
f 147//98 148//98 149//98
f 143//99 142//99 149//99
