# Blender v2.63 (sub 17) OBJ File: ''
# www.blender.org
o Cylinder
v -0.002697 -0.006410 -0.386578
v -0.002697 0.126658 -0.386578
v 0.072913 -0.006410 -0.379131
v 0.072913 0.126658 -0.379131
v 0.145618 -0.006410 -0.357076
v 0.145618 0.126658 -0.357076
v 0.212623 -0.006410 -0.321261
v 0.212623 0.126658 -0.321261
v 0.271353 -0.006410 -0.273062
v 0.271353 0.126658 -0.273062
v 0.319552 -0.006410 -0.214332
v 0.319552 0.126658 -0.214332
v 0.355367 -0.006410 -0.147327
v 0.355367 0.126658 -0.147327
v 0.377422 -0.006410 -0.074622
v 0.377422 0.126658 -0.074622
v 0.384869 -0.006410 0.000988
v 0.384869 0.126658 0.000988
v 0.377422 -0.006410 0.076599
v 0.377422 0.126658 0.076599
v 0.355367 -0.006410 0.149303
v 0.355367 0.126658 0.149303
v 0.319552 -0.006410 0.216309
v 0.319552 0.126658 0.216309
v 0.271353 -0.006410 0.275039
v 0.271353 0.126658 0.275039
v 0.212623 -0.006410 0.323238
v 0.212623 0.126658 0.323238
v 0.145618 -0.006410 0.359053
v 0.145618 0.126658 0.359053
v 0.072913 -0.006410 0.381107
v 0.072913 0.126658 0.381107
v -0.002697 -0.006410 0.388554
v -0.002697 0.126658 0.388554
v -0.078308 -0.006410 0.381107
v -0.078308 0.126658 0.381107
v -0.151013 -0.006410 0.359053
v -0.151013 0.126658 0.359053
v -0.218018 -0.006410 0.323238
v -0.218018 0.126658 0.323238
v -0.276748 -0.006410 0.275039
v -0.276748 0.126658 0.275039
v -0.324947 -0.006410 0.216308
v -0.324947 0.126658 0.216308
v -0.360762 -0.006410 0.149303
v -0.360762 0.126658 0.149303
v -0.382816 -0.006410 0.076598
v -0.382816 0.126658 0.076598
v -0.390263 -0.006410 0.000988
v -0.390263 0.126658 0.000988
v -0.382816 -0.006410 -0.074622
v -0.382816 0.126658 -0.074622
v -0.360761 -0.006410 -0.147327
v -0.360761 0.126658 -0.147327
v -0.324946 -0.006410 -0.214332
v -0.324946 0.126658 -0.214332
v -0.276748 -0.006410 -0.273063
v -0.276748 0.126658 -0.273063
v -0.218017 -0.006410 -0.321261
v -0.218017 0.126658 -0.321261
v -0.151012 -0.006410 -0.357076
v -0.151012 0.126658 -0.357076
v -0.078307 -0.006410 -0.379131
v -0.078307 0.126658 -0.379131
v -0.002697 0.126658 -0.151912
v 0.027132 0.126658 -0.148974
v 0.055815 0.126658 -0.140273
v 0.082250 0.126658 -0.126144
v 0.105420 0.126658 -0.107129
v 0.124435 0.126658 -0.083959
v 0.138565 0.126658 -0.057524
v 0.147265 0.126658 -0.028841
v 0.150203 0.126658 0.000988
v 0.147265 0.126658 0.030818
v 0.138565 0.126658 0.059501
v 0.124435 0.126658 0.085935
v 0.105420 0.126658 0.109105
v 0.082250 0.126658 0.128120
v 0.055815 0.126658 0.142250
v 0.027132 0.126658 0.150951
v -0.002697 0.126658 0.153889
v -0.032527 0.126658 0.150951
v -0.061210 0.126658 0.142250
v -0.087644 0.126658 0.128120
v -0.110814 0.126658 0.109105
v -0.129830 0.126658 0.085935
v -0.143959 0.126658 0.059501
v -0.152660 0.126658 0.030818
v -0.155598 0.126658 0.000988
v -0.152660 0.126658 -0.028841
v -0.143959 0.126658 -0.057524
v -0.129829 0.126658 -0.083959
v -0.110814 0.126658 -0.107129
v -0.087644 0.126658 -0.126144
v -0.061210 0.126658 -0.140274
v -0.032526 0.126658 -0.148974
v -0.002697 0.259142 -0.151912
v 0.027132 0.259142 -0.148974
v 0.055815 0.259142 -0.140273
v 0.082250 0.259142 -0.126144
v 0.105420 0.259142 -0.107129
v 0.124435 0.259142 -0.083959
v 0.138565 0.259142 -0.057524
v 0.147265 0.259142 -0.028841
v 0.150203 0.259142 0.000988
v 0.147265 0.259142 0.030818
v 0.138565 0.259142 0.059501
v 0.124435 0.259142 0.085935
v 0.105420 0.259142 0.109105
v 0.082250 0.259142 0.128120
v 0.055815 0.259142 0.142250
v 0.027132 0.259142 0.150951
v -0.002697 0.259142 0.153889
v -0.032527 0.259142 0.150951
v -0.061210 0.259142 0.142250
v -0.087644 0.259142 0.128120
v -0.110814 0.259142 0.109105
v -0.129830 0.259142 0.085935
v -0.143959 0.259142 0.059501
v -0.152660 0.259142 0.030818
v -0.155598 0.259142 0.000988
v -0.152660 0.259142 -0.028841
v -0.143959 0.259142 -0.057524
v -0.129829 0.259142 -0.083959
v -0.110814 0.259142 -0.107129
v -0.087644 0.259142 -0.126144
v -0.061210 0.259142 -0.140274
v -0.032526 0.259142 -0.148974
v -0.002697 0.259142 -0.061175
v 0.009430 0.259142 -0.059980
v 0.021091 0.259142 -0.056443
v 0.031839 0.259142 -0.050698
v 0.041259 0.259142 -0.042968
v 0.048989 0.259142 -0.033548
v 0.054734 0.259142 -0.022800
v 0.058271 0.259142 -0.011139
v 0.059466 0.259142 0.000988
v 0.058271 0.259142 0.013116
v 0.054734 0.259142 0.024777
v 0.048989 0.259142 0.035524
v 0.041259 0.259142 0.044944
v 0.031839 0.259142 0.052675
v 0.021091 0.259142 0.058419
v 0.009430 0.259142 0.061957
v -0.002697 0.259142 0.063151
v -0.014825 0.259142 0.061957
v -0.026486 0.259142 0.058419
v -0.037233 0.259142 0.052675
v -0.046653 0.259142 0.044944
v -0.054384 0.259142 0.035524
v -0.060128 0.259142 0.024777
v -0.063666 0.259142 0.013116
v -0.064860 0.259142 0.000988
v -0.063666 0.259142 -0.011139
v -0.060128 0.259142 -0.022801
v -0.054384 0.259142 -0.033548
v -0.046653 0.259142 -0.042968
v -0.037233 0.259142 -0.050698
v -0.026486 0.259142 -0.056443
v -0.014825 0.259142 -0.059980
v -0.002697 0.629984 -0.061175
v 0.009430 0.629984 -0.059980
v 0.021092 0.629984 -0.056443
v 0.031839 0.629984 -0.050698
v 0.041259 0.629984 -0.042968
v 0.048989 0.629984 -0.033548
v 0.054734 0.629984 -0.022800
v 0.058271 0.629984 -0.011139
v 0.059466 0.629984 0.000988
v 0.058271 0.629984 0.013116
v 0.054734 0.629984 0.024777
v 0.048989 0.629984 0.035524
v 0.041259 0.629984 0.044944
v 0.031839 0.629984 0.052675
v 0.021092 0.629984 0.058419
v 0.009430 0.629984 0.061957
v -0.002697 0.629984 0.063151
v -0.014825 0.629984 0.061957
v -0.026486 0.629984 0.058419
v -0.037233 0.629984 0.052675
v -0.046653 0.629984 0.044944
v -0.054384 0.629984 0.035524
v -0.060128 0.629984 0.024777
v -0.063666 0.629984 0.013116
v -0.064860 0.629984 0.000988
v -0.063666 0.629984 -0.011139
v -0.060128 0.629984 -0.022801
v -0.054384 0.629984 -0.033548
v -0.046653 0.629984 -0.042968
v -0.037233 0.629984 -0.050698
v -0.026486 0.629984 -0.056443
v -0.014824 0.629984 -0.059980
v -0.002697 0.632910 -0.014519
v 0.000328 0.632910 -0.014221
v 0.003237 0.632910 -0.013339
v 0.005918 0.632910 -0.011906
v 0.008268 0.632910 -0.009977
v 0.010197 0.632910 -0.007627
v 0.011630 0.632910 -0.004946
v 0.012512 0.632910 -0.002037
v 0.012810 0.632910 0.000988
v 0.012512 0.632910 0.004014
v 0.011630 0.632910 0.006923
v 0.010197 0.632910 0.009604
v 0.008268 0.632910 0.011954
v 0.005918 0.632910 0.013882
v 0.003237 0.632910 0.015315
v 0.000328 0.632910 0.016198
v -0.002697 0.632910 0.016496
v -0.005723 0.632910 0.016198
v -0.008632 0.632910 0.015315
v -0.011313 0.632910 0.013882
v -0.013663 0.632910 0.011954
v -0.015591 0.632910 0.009604
v -0.017024 0.632910 0.006923
v -0.017907 0.632910 0.004014
v -0.018205 0.632910 0.000988
v -0.017907 0.632910 -0.002037
v -0.017024 0.632910 -0.004946
v -0.015591 0.632910 -0.007627
v -0.013663 0.632910 -0.009977
v -0.011313 0.632910 -0.011906
v -0.008632 0.632910 -0.013339
v -0.005723 0.632910 -0.014221
v -0.002697 0.822966 -0.014519
v 0.000328 0.822966 -0.014221
v 0.003237 0.822966 -0.013339
v 0.005918 0.822966 -0.011906
v 0.008268 0.822966 -0.009977
v 0.010197 0.822966 -0.007627
v 0.011630 0.822966 -0.004946
v 0.012512 0.822966 -0.002037
v 0.012810 0.822966 0.000988
v 0.012512 0.822966 0.004014
v 0.011630 0.822966 0.006923
v 0.010197 0.822966 0.009604
v 0.008268 0.822966 0.011954
v 0.005918 0.822966 0.013882
v 0.003237 0.822966 0.015315
v 0.000328 0.822966 0.016198
v -0.002697 0.822966 0.016496
v -0.005723 0.822966 0.016198
v -0.008632 0.822966 0.015315
v -0.011313 0.822966 0.013882
v -0.013663 0.822966 0.011954
v -0.015591 0.822966 0.009604
v -0.017024 0.822966 0.006923
v -0.017907 0.822966 0.004014
v -0.018205 0.822966 0.000988
v -0.017907 0.822966 -0.002037
v -0.017024 0.822966 -0.004946
v -0.015591 0.822966 -0.007627
v -0.013663 0.822966 -0.009977
v -0.011313 0.822966 -0.011906
v -0.008632 0.822966 -0.013339
v -0.005723 0.822966 -0.014221
v -0.002697 0.771581 -0.014519
v -0.005723 0.771581 -0.014221
v -0.002697 0.815781 -0.014519
v -0.005723 0.815781 -0.014221
v -0.011729 0.771581 -0.106216
v -0.014754 0.771581 -0.105918
v -0.011729 0.815781 -0.106216
v -0.014754 0.815781 -0.105918
vn 0.098017 0.000000 -0.995185
vn 0.290285 0.000000 -0.956940
vn 0.471397 0.000000 -0.881921
vn 0.634393 0.000000 -0.773011
vn 0.773011 0.000000 -0.634393
vn 0.881921 0.000000 -0.471397
vn 0.956940 0.000000 -0.290285
vn 0.995185 0.000000 -0.098017
vn 0.995185 0.000000 0.098017
vn 0.956940 0.000000 0.290285
vn 0.881921 0.000000 0.471396
vn 0.773010 0.000000 0.634394
vn 0.634394 0.000000 0.773010
vn 0.471396 0.000000 0.881922
vn 0.290285 0.000000 0.956940
vn 0.098017 0.000000 0.995185
vn -0.098017 0.000000 0.995185
vn -0.290285 0.000000 0.956940
vn -0.471397 0.000000 0.881921
vn -0.634394 0.000000 0.773010
vn -0.773011 0.000000 0.634393
vn -0.881922 0.000000 0.471396
vn -0.956941 0.000000 0.290284
vn -0.995185 0.000000 0.098017
vn -0.995185 -0.000000 -0.098018
vn -0.956940 -0.000000 -0.290286
vn -0.881921 -0.000000 -0.471397
vn -0.773009 -0.000000 -0.634394
vn -0.634392 -0.000000 -0.773011
vn -0.471396 -0.000000 -0.881922
vn 0.000000 1.000000 0.000000
vn -0.098016 -0.000000 -0.995185
vn -0.290283 -0.000000 -0.956941
vn 0.000000 -1.000000 -0.000000
vn 0.098018 -0.000000 -0.995185
vn -0.098017 -0.000000 -0.995185
vn 0.773010 0.000000 0.634393
vn 0.956940 0.000000 -0.290284
vn 0.290284 0.000000 -0.956941
vn -0.773010 -0.000000 -0.634395
vn -0.956940 0.000000 0.290284
vn 0.634393 0.000000 0.773010
vn 0.995185 0.000000 -0.098018
vn -0.634392 -0.000000 -0.773012
vn 0.471397 0.000000 0.881921
vn -0.471395 -0.000000 -0.881922
vn 0.290284 0.000000 0.956941
vn -0.290284 -0.000000 -0.956941
vn -0.956940 -0.000000 -0.290287
vn 0.881921 0.000000 0.471397
vn 0.773011 -0.000000 0.634393
vn 0.018259 0.998020 0.060192
vn 0.956941 -0.000000 -0.290284
vn -0.773010 0.000000 -0.634394
vn -0.290284 0.000000 0.956940
vn 0.634393 -0.000000 0.773011
vn 0.995185 -0.000000 0.098016
vn 0.634393 -0.000000 -0.773010
vn -0.995185 0.000000 -0.098019
vn 0.290284 -0.000000 0.956940
vn -0.098018 0.000000 0.995185
vn 0.060192 0.998020 0.018259
vn 0.048623 0.998020 -0.039903
vn -0.018259 0.998020 -0.060192
vn -0.060192 0.998020 -0.018259
vn -0.048622 0.998020 0.039903
vn 0.006165 0.998020 0.062597
vn 0.055473 0.998020 0.029651
vn 0.055473 0.998020 -0.029651
vn 0.006165 0.998020 -0.062597
vn -0.006165 0.998020 -0.062597
vn -0.055473 0.998020 -0.029651
vn -0.055473 0.998020 0.029651
vn -0.006165 0.998020 0.062597
vn 0.048622 0.998020 0.039903
vn 0.060192 0.998020 -0.018259
vn 0.018259 0.998020 -0.060192
vn -0.048622 0.998020 -0.039904
vn -0.060192 0.998020 0.018259
vn -0.018259 0.998020 0.060192
vn 0.039903 0.998020 0.048622
vn 0.062597 0.998020 -0.006165
vn 0.029651 0.998020 -0.055473
vn -0.039903 0.998020 -0.048623
vn -0.062597 0.998020 0.006165
vn -0.029651 0.998020 0.055473
vn 0.029651 0.998020 0.055473
vn 0.062597 0.998020 0.006165
vn 0.039903 0.998020 -0.048622
vn -0.029651 0.998020 -0.055473
vn -0.062597 0.998020 -0.006165
vn -0.039903 0.998020 0.048622
vn 0.634392 0.000000 0.773011
vn -0.995185 0.000000 0.098016
vn -0.471398 0.000000 0.881921
vn 0.773011 0.000000 -0.634392
vn -0.773010 0.000000 0.634393
vn 0.098018 0.000000 0.995185
vn 0.000000 0.000000 0.000000
vn -0.881922 0.000000 0.471395
vn 0.773011 0.000000 0.634392
vn -0.956940 0.000000 0.290285
vn -0.098019 -0.000000 -0.995185
vn 0.290284 -0.000000 -0.956940
vn 0.048623 0.998020 0.039903
vn -0.048622 0.998020 -0.039903
vn 0.039903 0.998020 0.048623
vn 0.039903 0.998020 -0.048623
s off
f 1//1 2//1 4//1
f 3//2 4//2 6//2
f 5//3 6//3 8//3
f 7//4 8//4 10//4
f 9//5 10//5 12//5
f 11//6 12//6 14//6
f 13//7 14//7 16//7
f 15//8 16//8 18//8
f 17//9 18//9 20//9
f 19//10 20//10 22//10
f 21//11 22//11 24//11
f 23//12 24//12 26//12
f 25//13 26//13 28//13
f 27//14 28//14 30//14
f 29//15 30//15 32//15
f 31//16 32//16 34//16
f 33//17 34//17 36//17
f 35//18 36//18 38//18
f 37//19 38//19 40//19
f 39//20 40//20 42//20
f 41//21 42//21 44//21
f 43//22 44//22 46//22
f 45//23 46//23 48//23
f 47//24 48//24 50//24
f 49//25 50//25 52//25
f 51//26 52//26 54//26
f 53//27 54//27 56//27
f 55//28 56//28 58//28
f 57//29 58//29 60//29
f 59//30 60//30 62//30
f 46//31 44//31 86//31
f 63//32 64//32 2//32
f 61//33 62//33 64//33
f 1//34 3//34 63//34
f 71//6 70//6 102//6
f 22//31 20//31 75//31
f 60//31 58//31 93//31
f 36//31 34//31 81//31
f 12//31 10//31 69//31
f 50//31 48//31 88//31
f 26//31 24//31 77//31
f 64//31 62//31 95//31
f 40//31 38//31 83//31
f 16//31 14//31 71//31
f 54//31 52//31 90//31
f 30//31 28//31 78//31
f 6//31 4//31 67//31
f 44//31 42//31 86//31
f 20//31 18//31 74//31
f 58//31 56//31 92//31
f 34//31 32//31 81//31
f 10//31 8//31 69//31
f 48//31 46//31 87//31
f 4//31 2//31 65//31
f 24//31 22//31 76//31
f 62//31 60//31 94//31
f 38//31 36//31 83//31
f 14//31 12//31 71//31
f 52//31 50//31 89//31
f 28//31 26//31 78//31
f 2//31 64//31 96//31
f 42//31 40//31 84//31
f 18//31 16//31 73//31
f 56//31 54//31 91//31
f 32//31 30//31 80//31
f 8//31 6//31 67//31
f 106//31 105//31 138//31
f 66//35 65//35 97//35
f 65//36 96//36 128//36
f 92//27 91//27 123//27
f 87//22 86//22 118//22
f 82//17 81//17 113//17
f 77//37 76//37 108//37
f 72//38 71//38 103//38
f 67//39 66//39 98//39
f 93//40 92//40 124//40
f 88//41 87//41 119//41
f 83//18 82//18 114//18
f 78//42 77//42 109//42
f 73//43 72//43 104//43
f 68//3 67//3 99//3
f 94//44 93//44 125//44
f 89//24 88//24 120//24
f 84//19 83//19 115//19
f 79//45 78//45 110//45
f 74//9 73//9 105//9
f 69//4 68//4 100//4
f 95//46 94//46 126//46
f 90//25 89//25 121//25
f 85//20 84//20 116//20
f 80//47 79//47 111//47
f 75//10 74//10 106//10
f 70//5 69//5 101//5
f 96//48 95//48 127//48
f 91//49 90//49 122//49
f 86//21 85//21 117//21
f 81//16 80//16 112//16
f 76//50 75//50 107//50
f 141//51 140//51 172//51
f 101//31 100//31 133//31
f 127//31 126//31 158//31
f 122//31 121//31 153//31
f 117//31 116//31 148//31
f 112//31 111//31 143//31
f 107//31 106//31 138//31
f 102//31 101//31 133//31
f 128//31 127//31 160//31
f 123//31 122//31 154//31
f 118//31 117//31 149//31
f 113//31 112//31 145//31
f 108//31 107//31 140//31
f 103//31 102//31 135//31
f 98//31 97//31 129//31
f 97//31 128//31 129//31
f 124//31 123//31 156//31
f 119//31 118//31 150//31
f 114//31 113//31 146//31
f 109//31 108//31 141//31
f 104//31 103//31 136//31
f 99//31 98//31 131//31
f 125//31 124//31 156//31
f 120//31 119//31 152//31
f 115//31 114//31 147//31
f 110//31 109//31 142//31
f 105//31 104//31 137//31
f 100//31 99//31 131//31
f 126//31 125//31 157//31
f 121//31 120//31 152//31
f 116//31 115//31 147//31
f 111//31 110//31 143//31
f 176//52 175//52 207//52
f 136//53 135//53 167//53
f 131//2 130//2 162//2
f 157//54 156//54 188//54
f 152//41 151//41 183//41
f 147//55 146//55 178//55
f 142//56 141//56 173//56
f 137//8 136//8 168//8
f 132//3 131//3 163//3
f 158//29 157//29 189//29
f 153//24 152//24 184//24
f 148//19 147//19 179//19
f 143//45 142//45 174//45
f 138//57 137//57 169//57
f 133//58 132//58 164//58
f 159//46 158//46 190//46
f 154//59 153//59 185//59
f 149//20 148//20 180//20
f 144//60 143//60 175//60
f 139//10 138//10 170//10
f 134//5 133//5 165//5
f 160//33 159//33 191//33
f 155//26 154//26 186//26
f 150//21 149//21 181//21
f 145//16 144//16 176//16
f 140//50 139//50 171//50
f 135//6 134//6 166//6
f 130//1 129//1 161//1
f 129//36 160//36 192//36
f 156//27 155//27 187//27
f 151//22 150//22 182//22
f 146//61 145//61 177//61
f 211//55 210//55 242//55
f 171//62 170//62 202//62
f 166//63 165//63 197//63
f 192//64 191//64 223//64
f 187//65 186//65 218//65
f 182//66 181//66 214//66
f 177//67 176//67 209//67
f 172//68 171//68 204//68
f 167//69 166//69 199//69
f 162//70 161//70 193//70
f 161//71 192//71 193//71
f 188//72 187//72 220//72
f 183//73 182//73 214//73
f 178//74 177//74 210//74
f 173//75 172//75 205//75
f 168//76 167//76 199//76
f 163//77 162//77 195//77
f 189//78 188//78 220//78
f 184//79 183//79 216//79
f 179//80 178//80 211//80
f 174//81 173//81 205//81
f 169//82 168//82 201//82
f 164//83 163//83 196//83
f 190//84 189//84 221//84
f 185//85 184//85 216//85
f 180//86 179//86 211//86
f 175//87 174//87 207//87
f 170//88 169//88 202//88
f 165//89 164//89 196//89
f 191//90 190//90 222//90
f 186//91 185//91 217//91
f 181//92 180//92 212//92
f 226//31 225//31 227//31
f 206//93 205//93 237//93
f 201//43 200//43 232//43
f 196//3 195//3 227//3
f 222//44 221//44 253//44
f 217//94 216//94 248//94
f 212//95 211//95 243//95
f 207//45 206//45 238//45
f 202//9 201//9 233//9
f 197//4 196//4 228//4
f 223//46 222//46 254//46
f 218//25 217//25 249//25
f 213//20 212//20 244//20
f 208//47 207//47 239//47
f 203//10 202//10 234//10
f 198//96 197//96 229//96
f 224//33 223//33 255//33
f 219//49 218//49 250//49
f 214//97 213//97 245//97
f 209//98 208//98 240//98
f 204//50 203//50 235//50
f 199//6 198//6 230//6
f 194//35 193//35 225//35
f 260//99 258//99 224//99
f 220//27 219//27 251//27
f 215//100 214//100 246//100
f 210//61 209//61 241//61
f 205//101 204//101 236//101
f 200//53 199//53 231//53
f 195//2 194//2 226//2
f 221//54 220//54 252//54
f 216//102 215//102 247//102
f 263//31 264//31 259//31
f 193//36 224//36 258//36
f 257//99 259//99 225//99
f 259//36 260//36 256//36
f 261//103 262//103 264//103
f 264//24 262//24 258//24
f 261//8 263//8 259//8
f 257//34 258//34 262//34
f 3//1 1//1 4//1
f 5//2 3//2 6//2
f 7//3 5//3 8//3
f 9//4 7//4 10//4
f 11//5 9//5 12//5
f 13//6 11//6 14//6
f 15//7 13//7 16//7
f 17//8 15//8 18//8
f 19//9 17//9 20//9
f 21//10 19//10 22//10
f 23//11 21//11 24//11
f 25//12 23//12 26//12
f 27//13 25//13 28//13
f 29//14 27//14 30//14
f 31//15 29//15 32//15
f 33//16 31//16 34//16
f 35//17 33//17 36//17
f 37//18 35//18 38//18
f 39//19 37//19 40//19
f 41//20 39//20 42//20
f 43//21 41//21 44//21
f 45//22 43//22 46//22
f 47//23 45//23 48//23
f 49//24 47//24 50//24
f 51//25 49//25 52//25
f 53//26 51//26 54//26
f 55//27 53//27 56//27
f 57//28 55//28 58//28
f 59//29 57//29 60//29
f 61//30 59//30 62//30
f 87//31 46//31 86//31
f 1//32 63//32 2//32
f 63//33 61//33 64//33
f 3//34 5//34 63//34
f 5//34 7//34 63//34
f 7//34 9//34 63//34
f 9//34 11//34 63//34
f 11//34 13//34 63//34
f 13//34 15//34 63//34
f 15//34 17//34 63//34
f 17//34 19//34 63//34
f 19//34 21//34 63//34
f 21//34 23//34 63//34
f 23//34 25//34 63//34
f 61//34 57//34 59//34
f 53//34 49//34 51//34
f 35//34 31//34 33//34
f 35//34 29//34 31//34
f 39//34 35//34 37//34
f 39//34 29//34 35//34
f 45//34 41//34 43//34
f 47//34 41//34 45//34
f 47//34 39//34 41//34
f 47//34 29//34 39//34
f 53//34 47//34 49//34
f 53//34 29//34 47//34
f 55//34 29//34 53//34
f 27//34 29//34 55//34
f 61//34 55//34 57//34
f 27//34 55//34 61//34
f 25//34 27//34 63//34
f 27//34 61//34 63//34
f 103//6 71//6 102//6
f 20//31 74//31 75//31
f 94//31 60//31 93//31
f 82//31 36//31 81//31
f 70//31 12//31 69//31
f 89//31 50//31 88//31
f 24//31 76//31 77//31
f 96//31 64//31 95//31
f 84//31 40//31 83//31
f 72//31 16//31 71//31
f 91//31 54//31 90//31
f 79//31 30//31 78//31
f 4//31 66//31 67//31
f 42//31 85//31 86//31
f 18//31 73//31 74//31
f 93//31 58//31 92//31
f 32//31 80//31 81//31
f 8//31 68//31 69//31
f 88//31 48//31 87//31
f 66//31 4//31 65//31
f 22//31 75//31 76//31
f 95//31 62//31 94//31
f 36//31 82//31 83//31
f 12//31 70//31 71//31
f 90//31 52//31 89//31
f 26//31 77//31 78//31
f 65//31 2//31 96//31
f 85//31 42//31 84//31
f 16//31 72//31 73//31
f 92//31 56//31 91//31
f 30//31 79//31 80//31
f 68//31 8//31 67//31
f 105//31 137//31 138//31
f 98//35 66//35 97//35
f 97//36 65//36 128//36
f 124//27 92//27 123//27
f 119//22 87//22 118//22
f 114//17 82//17 113//17
f 109//37 77//37 108//37
f 104//38 72//38 103//38
f 99//39 67//39 98//39
f 125//40 93//40 124//40
f 120//41 88//41 119//41
f 115//18 83//18 114//18
f 110//42 78//42 109//42
f 105//43 73//43 104//43
f 100//3 68//3 99//3
f 126//44 94//44 125//44
f 121//24 89//24 120//24
f 116//19 84//19 115//19
f 111//45 79//45 110//45
f 106//9 74//9 105//9
f 101//4 69//4 100//4
f 127//46 95//46 126//46
f 122//25 90//25 121//25
f 117//20 85//20 116//20
f 112//47 80//47 111//47
f 107//10 75//10 106//10
f 102//5 70//5 101//5
f 128//48 96//48 127//48
f 123//49 91//49 122//49
f 118//21 86//21 117//21
f 113//16 81//16 112//16
f 108//50 76//50 107//50
f 173//51 141//51 172//51
f 100//31 132//31 133//31
f 159//31 127//31 158//31
f 154//31 122//31 153//31
f 149//31 117//31 148//31
f 144//31 112//31 143//31
f 139//31 107//31 138//31
f 134//31 102//31 133//31
f 127//31 159//31 160//31
f 155//31 123//31 154//31
f 150//31 118//31 149//31
f 112//31 144//31 145//31
f 107//31 139//31 140//31
f 102//31 134//31 135//31
f 130//31 98//31 129//31
f 128//31 160//31 129//31
f 123//31 155//31 156//31
f 151//31 119//31 150//31
f 113//31 145//31 146//31
f 108//31 140//31 141//31
f 103//31 135//31 136//31
f 98//31 130//31 131//31
f 157//31 125//31 156//31
f 119//31 151//31 152//31
f 114//31 146//31 147//31
f 109//31 141//31 142//31
f 104//31 136//31 137//31
f 132//31 100//31 131//31
f 158//31 126//31 157//31
f 153//31 121//31 152//31
f 148//31 116//31 147//31
f 110//31 142//31 143//31
f 208//52 176//52 207//52
f 168//38 136//38 167//38
f 163//104 131//104 162//104
f 189//40 157//40 188//40
f 184//41 152//41 183//41
f 179//55 147//55 178//55
f 174//56 142//56 173//56
f 169//8 137//8 168//8
f 164//3 132//3 163//3
f 190//44 158//44 189//44
f 185//24 153//24 184//24
f 180//19 148//19 179//19
f 175//45 143//45 174//45
f 170//9 138//9 169//9
f 165//58 133//58 164//58
f 191//46 159//46 190//46
f 186//59 154//59 185//59
f 181//20 149//20 180//20
f 176//60 144//60 175//60
f 171//10 139//10 170//10
f 166//5 134//5 165//5
f 192//33 160//33 191//33
f 187//26 155//26 186//26
f 182//21 150//21 181//21
f 177//16 145//16 176//16
f 172//50 140//50 171//50
f 167//6 135//6 166//6
f 162//1 130//1 161//1
f 161//36 129//36 192//36
f 188//27 156//27 187//27
f 183//22 151//22 182//22
f 178//61 146//61 177//61
f 243//55 211//55 242//55
f 203//62 171//62 202//62
f 198//63 166//63 197//63
f 224//64 192//64 223//64
f 219//65 187//65 218//65
f 181//66 213//66 214//66
f 176//67 208//67 209//67
f 171//68 203//68 204//68
f 166//69 198//69 199//69
f 194//70 162//70 193//70
f 192//71 224//71 193//71
f 187//72 219//72 220//72
f 215//73 183//73 214//73
f 177//74 209//74 210//74
f 172//105 204//105 205//105
f 200//76 168//76 199//76
f 162//77 194//77 195//77
f 221//106 189//106 220//106
f 183//79 215//79 216//79
f 178//80 210//80 211//80
f 206//107 174//107 205//107
f 168//82 200//82 201//82
f 163//83 195//83 196//83
f 222//84 190//84 221//84
f 217//85 185//85 216//85
f 212//86 180//86 211//86
f 174//87 206//87 207//87
f 169//88 201//88 202//88
f 197//108 165//108 196//108
f 223//90 191//90 222//90
f 218//91 186//91 217//91
f 213//92 181//92 212//92
f 225//31 256//31 227//31
f 256//31 255//31 227//31
f 255//31 254//31 227//31
f 254//31 253//31 227//31
f 253//31 252//31 227//31
f 252//31 251//31 227//31
f 251//31 250//31 227//31
f 250//31 249//31 227//31
f 249//31 248//31 227//31
f 248//31 247//31 227//31
f 247//31 246//31 227//31
f 246//31 245//31 227//31
f 245//31 244//31 227//31
f 244//31 243//31 227//31
f 243//31 242//31 227//31
f 242//31 241//31 227//31
f 241//31 240//31 227//31
f 240//31 239//31 227//31
f 239//31 238//31 227//31
f 238//31 237//31 227//31
f 237//31 236//31 227//31
f 236//31 235//31 227//31
f 235//31 234//31 227//31
f 234//31 233//31 227//31
f 233//31 232//31 227//31
f 232//31 231//31 227//31
f 231//31 230//31 227//31
f 230//31 229//31 228//31
f 227//31 230//31 228//31
f 238//93 206//93 237//93
f 233//43 201//43 232//43
f 228//3 196//3 227//3
f 254//44 222//44 253//44
f 249//94 217//94 248//94
f 244//95 212//95 243//95
f 239//45 207//45 238//45
f 234//9 202//9 233//9
f 229//4 197//4 228//4
f 255//46 223//46 254//46
f 250//25 218//25 249//25
f 245//20 213//20 244//20
f 240//47 208//47 239//47
f 235//10 203//10 234//10
f 230//96 198//96 229//96
f 256//33 224//33 255//33
f 251//49 219//49 250//49
f 246//97 214//97 245//97
f 241//98 209//98 240//98
f 236//50 204//50 235//50
f 231//6 199//6 230//6
f 226//35 194//35 225//35
f 256//99 260//99 224//99
f 252//27 220//27 251//27
f 247//100 215//100 246//100
f 242//61 210//61 241//61
f 237//101 205//101 236//101
f 232//53 200//53 231//53
f 227//2 195//2 226//2
f 253//54 221//54 252//54
f 248//102 216//102 247//102
f 264//31 260//31 259//31
f 257//36 193//36 258//36
f 193//99 257//99 225//99
f 225//36 259//36 256//36
f 263//103 261//103 264//103
f 260//24 264//24 258//24
f 257//8 261//8 259//8
f 261//34 257//34 262//34
